<?xml version="1.0" standalone="no"?>
<!DOCTYPE svg PUBLIC "-//W3C//DTD SVG 1.1//EN" "http://www.w3.org/Graphics/SVG/1.1/DTD/svg11.dtd" >
<svg xmlns="http://www.w3.org/2000/svg">
<metadata></metadata>
<defs>
<font id="trend_slabone" horiz-adv-x="1947" >
<font-face units-per-em="2048" ascent="1536" descent="-512" />
<missing-glyph horiz-adv-x="860" />
<glyph horiz-adv-x="0" />
<glyph horiz-adv-x="682" />
<glyph unicode=" "  horiz-adv-x="860" />
<glyph unicode="&#x09;" horiz-adv-x="860" />
<glyph unicode="&#xa0;" horiz-adv-x="860" />
<glyph unicode="!" horiz-adv-x="856" d="M274 123q0 64 44.5 108.5t109.5 44.5q64 0 109 -45t45 -108q0 -65 -45 -109.5t-109 -44.5q-66 0 -110 44.5t-44 109.5zM299 1501h258l-49 -1081h-160z" />
<glyph unicode="&#x22;" horiz-adv-x="997" d="M242 1546h209l-29 -407h-150zM547 1546h207l-29 -407h-150z" />
<glyph unicode="#" horiz-adv-x="1650" d="M215 254v213h217l60 203h-164v213h225l59 200h228l-58 -200h283l59 200h228l-58 -200h142v-213h-205l-60 -203h152v-213h-213l-74 -254h-227l74 254h-285l-74 -254h-227l74 254h-156zM659 467h285l60 203h-285z" />
<glyph unicode="$" horiz-adv-x="1148" d="M176 236l72 215q157 -105 311 -105q75 0 113.5 36.5t38.5 90.5q0 69 -38.5 116t-156.5 101q-154 69 -219.5 149.5t-65.5 190.5q0 109 70.5 198t194.5 122v213h204v-203q129 -15 228 -72l-66 -211q-136 76 -241 76q-77 0 -115.5 -33.5t-38.5 -83.5q0 -61 40 -104.5 t136 -89.5q174 -83 240.5 -160.5t66.5 -196.5q0 -125 -76.5 -220.5t-207.5 -125.5v-241h-203v235q-152 21 -287 103z" />
<glyph unicode="%" horiz-adv-x="1675" d="M174 1161q0 129 90.5 216t222.5 87t223 -87t91 -216t-91 -219t-223 -90t-222.5 90t-90.5 219zM260 66l1010 1396l129 -90l-1012 -1403zM319 1161q0 -77 48 -125.5t120 -48.5t120 48.5t48 125.5q0 75 -48.5 120.5t-119.5 45.5t-119.5 -45.5t-48.5 -120.5zM879 287 q0 129 90.5 216t222.5 87t222.5 -87t90.5 -216t-90.5 -219.5t-222.5 -90.5t-222.5 90.5t-90.5 219.5zM1024 287q0 -77 48 -125.5t120 -48.5t120 48.5t48 125.5q0 75 -48.5 120.5t-119.5 45.5t-119.5 -45.5t-48.5 -120.5z" />
<glyph unicode="&#x26;" horiz-adv-x="1822" d="M211 379q0 80 22.5 143.5t66.5 110t91.5 78t112.5 61.5q-158 155 -158 315q0 179 118.5 282.5t307.5 103.5q184 0 296 -98t112 -257q0 -84 -22.5 -150t-66 -112t-90 -76.5t-110.5 -58.5l307 -285q47 60 91 133.5t62 109t25 52.5v2h277v-233h-158q-75 -120 -152 -213 l52 -54h172v-233h-277l-127 131q-224 -160 -442 -160q-236 0 -373 117.5t-137 290.5zM479 397q0 -98 69.5 -152.5t192.5 -54.5q132 0 273 91l-363 340q-82 -39 -127 -91.5t-45 -132.5zM600 1087q0 -53 34 -98.5t111 -116.5q96 42 146.5 91t50.5 124t-45.5 127t-124.5 52 t-125.5 -51.5t-46.5 -127.5z" />
<glyph unicode="'" horiz-adv-x="694" d="M242 1546h209l-29 -407h-150z" />
<glyph unicode="(" horiz-adv-x="1062" d="M188 518q0 316 158.5 560t468.5 407l107 -162q-258 -139 -384 -337t-126 -468t126 -467t384 -336l-107 -164q-310 165 -468.5 408.5t-158.5 558.5z" />
<glyph unicode=")" horiz-adv-x="1062" d="M139 -274q258 139 384 335.5t126 466.5q0 267 -126 462.5t-384 332.5l107 162q310 -162 468 -403t158 -554q0 -633 -626 -966z" />
<glyph unicode="*" horiz-adv-x="1132" d="M225 1036l234 113l-234 108l74 132l213 -148l-20 258h149l-20 -256l210 146l76 -132l-233 -108l233 -113l-76 -129l-210 146l20 -256h-149l20 258l-213 -148z" />
<glyph unicode="+" horiz-adv-x="1417" d="M184 647v199h424v426h201v-426h424v-199h-424v-426h-201v426h-424z" />
<glyph unicode="," horiz-adv-x="784" d="M231 121q0 64 44.5 108.5t109.5 44.5q84 0 125 -55t41 -147q0 -202 -229 -367l-60 70q51 39 94 99.5t43 90.5v4q-4 -2 -14 -2q-66 0 -110 44.5t-44 109.5z" />
<glyph unicode="-" horiz-adv-x="1040" d="M266 412v178h508v-178h-508z" />
<glyph unicode="." horiz-adv-x="770" d="M231 123q0 64 44.5 108.5t109.5 44.5q64 0 109 -45t45 -108q0 -65 -44.5 -109.5t-109.5 -44.5q-66 0 -110 44.5t-44 109.5z" />
<glyph unicode="/" horiz-adv-x="937" d="M131 -442l490 1943h182l-488 -1943h-184z" />
<glyph unicode="0" horiz-adv-x="1800" d="M207 721q0 208 85.5 376.5t245.5 267.5t365 99q206 0 363.5 -96t241 -264.5t83.5 -382.5q0 -160 -45 -295.5t-130 -236t-216.5 -157.5t-296.5 -57t-297.5 56.5t-219.5 157t-133 236.5t-46 296zM481 717q0 -145 51.5 -262t149 -186.5t223.5 -69.5q189 0 301.5 146.5 t112.5 371.5q0 148 -49 265t-144 185t-221 68t-223.5 -68t-149 -185.5t-51.5 -264.5z" />
<glyph unicode="1" horiz-adv-x="1210" d="M162 1217l581 223h62v-1207h254v-233h-787v233h279v885l-303 -117z" />
<glyph unicode="2" horiz-adv-x="1441" d="M184 1341q6 5 16.5 13.5t49 29.5t83 37t117.5 29.5t152 13.5q254 0 392.5 -127.5t138.5 -328.5q0 -144 -51.5 -271t-186.5 -274q-36 -39 -103.5 -96.5t-117.5 -95.5l-49 -38h397v150h217v-383h-1044v133q12 9 33.5 25.5t83 66.5t117.5 98.5t122.5 114t112.5 121.5 q115 135 155.5 235t40.5 205q0 100 -71 168t-195 68q-59 0 -113 -10.5t-90 -25.5t-64 -30t-41 -25l-12 -11z" />
<glyph unicode="3" horiz-adv-x="1363" d="M172 98l90 209q5 -4 13.5 -11.5t39 -25.5t64.5 -32t89 -25.5t114 -11.5q128 0 202 69.5t74 169.5q0 98 -76.5 151.5t-220.5 53.5q-35 0 -75.5 -6t-63.5 -12l-23 -6l-63 163q7 6 90 83.5t194 180t175 158.5h-549v234h893v-178q-273 -258 -451 -424q442 -43 442 -406 q0 -98 -35 -180.5t-101 -144.5t-170 -97t-234 -35q-79 0 -151.5 12.5t-119 30.5t-81.5 36.5t-50 31.5z" />
<glyph unicode="4" horiz-adv-x="1441" d="M143 395v170l670 871v4h2l2 2l6 -2h244v-813h152v-232h-152v-162h152v-233h-660v233h254v162h-670zM465 627h348v440z" />
<glyph unicode="5" horiz-adv-x="1366" d="M176 98l90 209q5 -4 14.5 -11.5t41.5 -25.5t68.5 -32t95 -25.5t120.5 -11.5q128 0 202.5 69.5t74.5 169.5q0 109 -85 172.5t-229 63.5q-55 0 -111.5 -6t-85.5 -12l-30 -7q-55 52 -63 56v733h794v-383h-217v149h-309v-338q3 0 35 3t49 3q115 0 207 -23t165 -73 t112.5 -137.5t39.5 -208.5q0 -201 -141.5 -329t-399.5 -128q-83 0 -158.5 12.5t-124 30.5t-85.5 36.5t-54 31.5z" />
<glyph unicode="6" horiz-adv-x="1435" d="M203 522q0 120 23.5 224.5t72 193t109 162.5t149 145t176 129t205.5 125l143 -223q-224 -103 -376 -235t-191 -252q39 53 115 95t172 42q205 0 323.5 -121t118.5 -346q0 -210 -140 -348t-384 -138q-229 0 -372.5 149.5t-143.5 397.5zM479 461q0 -122 69 -190t175 -68 t176 67.5t70 190.5t-70 191.5t-176 68.5q-105 0 -174.5 -69t-69.5 -191z" />
<glyph unicode="7" horiz-adv-x="1273" d="M170 1440h993v-133l-567 -1307h-272l514 1206h-449v-149h-217z" />
<glyph unicode="8" horiz-adv-x="1474" d="M215 430q0 121 64 212.5t167 127.5q-85 38 -137.5 117.5t-52.5 171.5q0 130 66 223t173 137.5t242 44.5t242.5 -44.5t173.5 -137.5t66 -223q0 -92 -53 -171.5t-138 -117.5q102 -38 167 -129t65 -211q0 -193 -145 -324t-378 -131t-377.5 131t-144.5 324zM489 430 q0 -109 70.5 -168t177.5 -59t177.5 59t70.5 168q0 104 -70.5 161.5t-177.5 57.5t-177.5 -57.5t-70.5 -161.5zM530 1059q0 -95 59 -146t148 -51t148 51t59 146t-59 146.5t-148 51.5t-148 -51.5t-59 -146.5z" />
<glyph unicode="9" horiz-adv-x="1437" d="M195 979q0 210 140 347.5t384 137.5q230 0 373 -149t143 -397q0 -120 -23.5 -224.5t-72 -193t-109 -162.5t-149 -145t-176 -129t-205.5 -125l-144 223q224 103 376.5 235t191.5 252q-39 -53 -115 -95t-172 -42q-205 0 -323.5 121t-118.5 346zM469 979q0 -123 70 -191.5 t176 -68.5q105 0 174 69t69 191t-68.5 190t-174.5 68t-176 -67.5t-70 -190.5z" />
<glyph unicode=":" horiz-adv-x="829" d="M266 842q0 62 43 105.5t107 43.5q63 0 106 -43.5t43 -105.5t-43 -106t-106 -44q-64 0 -107 44t-43 106zM268 119q0 62 43 105.5t107 43.5q62 0 104.5 -43.5t42.5 -105.5t-42.5 -106t-104.5 -44q-64 0 -107 44t-43 106z" />
<glyph unicode=";" horiz-adv-x="864" d="M272 121q0 64 44.5 108.5t109.5 44.5q84 0 125 -55t41 -147q0 -201 -230 -367l-59 70q51 39 94 99.5t43 90.5v4q-4 -2 -14 -2q-66 0 -110 44.5t-44 109.5zM276 844q0 61 43 104t107 43q62 0 105.5 -43.5t43.5 -103.5q0 -62 -43 -106t-106 -44q-64 0 -107 44t-43 106z" />
<glyph unicode="&#x3c;" horiz-adv-x="1110" d="M219 424v211l625 393v-223l-451 -275l451 -276v-219z" />
<glyph unicode="=" horiz-adv-x="1359" d="M266 248v198h826v-198h-826zM266 711v198h826v-198h-826z" />
<glyph unicode="&#x3e;" horiz-adv-x="1110" d="M266 35v219l451 276l-451 275v223l625 -393v-211z" />
<glyph unicode="?" horiz-adv-x="1105" d="M162 1391q183 94 340 94q108 0 195 -31.5t140.5 -85.5t82 -122t28.5 -144q0 -69 -22 -127.5t-56.5 -100t-77 -79t-84.5 -73t-76.5 -73.5t-56.5 -89t-22 -111v-46h-207v76q0 70 19 129.5t48.5 101.5t66 79t73 69t66 64t48.5 72t19 85q0 87 -60.5 131.5t-170.5 44.5 q-64 0 -126 -17.5t-92 -34.5l-30 -17zM293 123q0 64 44 108.5t109 44.5q64 0 109 -45t45 -108q0 -65 -45 -109.5t-109 -44.5q-66 0 -109.5 44.5t-43.5 109.5z" />
<glyph unicode="@" horiz-adv-x="2361" d="M195 559q0 204 70 376.5t196 294.5t310.5 190.5t406.5 68.5q220 0 402.5 -64.5t308 -180.5t194.5 -278.5t69 -355.5q0 -148 -43.5 -261.5t-120 -181.5t-174.5 -102t-215 -34h-202v172h67l-39 94h-403l-41 -94h70v-172h-375v172h102l318 708h-187v172h377l387 -880 q133 0 203 96t70 311q0 214 -96.5 372.5t-270 241.5t-401.5 83q-349 0 -560.5 -201.5t-211.5 -546.5q0 -244 101.5 -428.5t309.5 -294.5l-108 -166q-173 82 -290.5 224t-170.5 308.5t-53 356.5zM1090 457h270l-133 323z" />
<glyph unicode="A" horiz-adv-x="1720" d="M115 0v233h155l437 973h-246v234h471l538 -1207h156v-233h-534v233h110l-65 150h-543l-64 -150h123v-233h-538zM682 586h369l-185 430z" />
<glyph unicode="B" horiz-adv-x="1648" d="M238 0v233h157v973h-157v234h618q269 0 403 -102t134 -279q0 -116 -65 -198.5t-187 -125.5q146 -42 218.5 -125.5t72.5 -201.5q0 -125 -76 -218.5t-205.5 -141.5t-294.5 -48h-618zM649 233h219q151 0 220 56.5t69 144.5q0 84 -85 142q-84 57 -259 57h-6h-158v-400z M649 815h182h5q142 0 216 61q76 62 76 152q0 79 -64 128.5t-196 49.5h-219v-391z" />
<glyph unicode="C" horiz-adv-x="1744" d="M205 721q0 153 56.5 291t151.5 237t225 157t271 58q99 0 177.5 -16t120.5 -36.5t71.5 -48t38 -43.5t12.5 -30l-16 150h229l2 -488h-229q-6 123 -111 198t-252 75q-218 0 -345.5 -141.5t-127.5 -366.5q0 -140 70 -256.5t184 -181t244 -64.5q81 0 156.5 10t125 24.5t87 29 t54.5 24.5l17 10l78 -217q-7 -5 -21.5 -13t-62 -29t-99.5 -37t-133 -29t-165 -13q-231 0 -415 93t-289 264t-105 389z" />
<glyph unicode="D" horiz-adv-x="1914" d="M238 0v233h157v973h-157v234h700q220 0 396 -92t275 -256.5t99 -370.5q0 -152 -59 -286t-160.5 -229.5t-245 -150.5t-305.5 -55h-700zM651 233h289q211 0 353.5 137.5t142.5 346.5q0 213 -140 351t-356 138h-289v-973z" />
<glyph unicode="E" horiz-adv-x="1562" d="M238 0v233h157v973h-157v234h1093v-393h-217v159h-465v-403h348v-225h-348v-345h465v160h217v-393h-1093z" />
<glyph unicode="F" horiz-adv-x="1482" d="M238 0v233h157v973h-157v234h1093v-393h-217v159h-467v-420h350v-225h-350v-328h256v-233h-665z" />
<glyph unicode="G" horiz-adv-x="1818" d="M205 721q0 153 56.5 291t151.5 237t225 157t271 58q99 0 177.5 -16t120.5 -36.5t71.5 -48t38 -43.5t12.5 -30l-16 174h231v-512h-229q-5 115 -102.5 194t-260.5 79q-218 0 -345.5 -141.5t-127.5 -366.5q0 -217 148 -359.5t372 -142.5q175 0 328 57v256h-401v228h647v-617 q-9 -7 -25.5 -18t-72 -39t-116 -50t-154 -39.5t-189.5 -17.5q-179 0 -331.5 57t-257 156t-163.5 237t-59 296z" />
<glyph unicode="H" horiz-adv-x="1998" d="M238 0v233h157v973h-157v234h569v-234h-158v-413h703v413h-158v234h569v-234h-157v-973h155v-233h-567v233h158v334h-703v-334h156v-233h-567z" />
<glyph unicode="I" horiz-adv-x="1042" d="M238 0v233h157v973h-157v234h569v-234h-158v-973h158v-233h-569z" />
<glyph unicode="J" horiz-adv-x="1306" d="M92 82l96 209q5 -3 14 -8.5t37.5 -19.5t58 -24.5t73 -19t84.5 -8.5q58 0 100 15t66 39t38 63t18.5 77t4.5 91v710h-156v234h570v-234h-156v-712q0 -255 -113 -387t-368 -132q-64 0 -125 11t-103 26.5t-74.5 31.5t-48.5 27z" />
<glyph unicode="K" horiz-adv-x="1726" d="M238 0v233h157v973h-157v234h536v-234h-125v-471l410 471h-105v234h590v-234h-178l-459 -524l457 -449h180v-233h-590v233h90l-395 383v-383h125v-233h-536z" />
<glyph unicode="L" horiz-adv-x="1486" d="M238 0v233h157v973h-157v234h630v-234h-219v-973h465v160h217v-393h-1093z" />
<glyph unicode="M" horiz-adv-x="2277" d="M238 0v233h163l29 973h-192v234h346l563 -1043l549 1043h346v-234h-193l27 -973h164v-233h-567v233h159l-4 635l-414 -868h-149l-418 854l-4 -621h162v-233h-567z" />
<glyph unicode="N" horiz-adv-x="1990" d="M238 0v233h157v973h-157v234h307l821 -961v727h-158v234h570v-234h-158v-1206h-190l-781 944v-711h158v-233h-569z" />
<glyph unicode="O" d="M205 721q0 153 59.5 291t162 237t245 157t301.5 58q220 0 396 -95.5t275 -265.5t99 -382q0 -157 -59 -295t-160.5 -236.5t-245 -155.5t-305.5 -57q-163 0 -305.5 56.5t-244 155t-160 237t-58.5 295.5zM479 717q0 -142 65.5 -260.5t179.5 -187t251 -68.5 q210 0 352.5 148.5t142.5 367.5q0 146 -63 264.5t-176.5 186t-255.5 67.5q-213 0 -354.5 -148t-141.5 -370z" />
<glyph unicode="P" horiz-adv-x="1581" d="M238 0v233h157v973h-157v234h598q279 0 427 -139.5t148 -372.5q0 -236 -155.5 -373t-469.5 -137h-137v-185h244v-233h-655zM649 643h168q168 0 244 78t76 207q0 278 -320 278h-168v-563z" />
<glyph unicode="Q" d="M205 721q0 153 59.5 291t162 237t245 157t301.5 58q220 0 396 -95.5t275 -265.5t99 -382q0 -268 -162 -467t-420 -256q17 -13 44 -25.5t94 -26.5t151 -14q65 0 116.5 9t69.5 17l19 9l76 -205q-40 -18 -121 -37.5t-172 -19.5q-93 0 -183.5 22t-156 52.5t-128 73.5t-98 75 t-67.5 66q-268 53 -434 252t-166 475zM479 717q0 -142 65.5 -260.5t179.5 -187t251 -68.5q133 0 247.5 70.5t181 189.5t66.5 256q0 146 -63 264.5t-176.5 186t-255.5 67.5q-213 0 -354.5 -148t-141.5 -370z" />
<glyph unicode="R" horiz-adv-x="1697" d="M238 0v233h157v973h-157v234h618q279 0 427.5 -139.5t148.5 -372.5q0 -168 -76.5 -291.5t-214.5 -177.5l170 -226h184v-233h-303l-307 420q-25 -2 -78 -2h-158v-185h156v-233h-567zM649 643h189q168 0 243.5 78t75.5 207q0 278 -319 278h-189v-563z" />
<glyph unicode="S" horiz-adv-x="1441" d="M215 451h229v-27q0 -47 16.5 -84.5t43.5 -61t64.5 -38.5t76 -21t80.5 -6q116 0 177 50.5t61 125.5q0 51 -24 87t-92.5 75.5t-197.5 87.5q-203 77 -290 181.5t-87 246.5q0 78 30 149t85 126.5t140 88.5t188 33q52 0 97 -11.5t70.5 -25.5t47 -34.5t27 -28t10.5 -16.5 l-19 92h230l2 -424h-230v67q-13 154 -221 154q-101 0 -151 -46t-50 -118q0 -74 63.5 -128.5t217.5 -115.5q234 -92 324 -192.5t90 -247.5q0 -188 -126.5 -301t-318.5 -113q-79 0 -144 15t-101.5 36t-61.5 42t-34 36l-9 15l18 -119h-229z" />
<glyph unicode="T" horiz-adv-x="1529" d="M160 1047v393h1210v-393h-217v159h-256v-973h158v-233h-570v233h156v973h-264v-159h-217z" />
<glyph unicode="U" horiz-adv-x="1912" d="M199 1206v234h569v-234h-158v-610q0 -389 342 -389q351 0 351 391v608h-158v234h569v-234h-158v-610q0 -158 -43.5 -278t-124 -195t-190 -112.5t-246.5 -37.5q-280 0 -438 155t-158 468v610h-157z" />
<glyph unicode="V" horiz-adv-x="1808" d="M96 1206v234h590v-234h-119l340 -780l340 780h-127v234h590v-234h-197l-528 -1206h-160l-528 1206h-201z" />
<glyph unicode="W" horiz-adv-x="2371" d="M106 1206v234h590v-234h-145l207 -725l356 959h146l360 -957v-4l205 727h-152v234h590v-234h-168l-366 -1206h-170l-375 954l-369 -954h-168l-371 1206h-170z" />
<glyph unicode="X" horiz-adv-x="1744" d="M193 0l2 2v231h174l346 455l-359 518h-161v234h553v-234h-91l215 -319l222 319h-97v234h553v-234h-168l-354 -497l350 -476h172v-231l2 -2h-555v233h76l-205 277l-202 -277h82v-233h-555z" />
<glyph unicode="Y" horiz-adv-x="1601" d="M102 1206v234h553v-234h-118l266 -434l264 434h-123v234h553v-234h-147l-422 -667v-306h155v-233h-569v233h158v308l-422 665h-148z" />
<glyph unicode="Z" horiz-adv-x="1628" d="M201 0v180l868 1026h-598v-217h-217v451h1155v-191l-860 -1016h625v207h217v-440h-1190z" />
<glyph unicode="[" horiz-adv-x="933" d="M309 -442v1882h453v-178h-258v-1528h258v-176h-453z" />
<glyph unicode="\" horiz-adv-x="935" d="M133 1450h182l490 -1892h-184z" />
<glyph unicode="]" horiz-adv-x="933" d="M172 -266h258v1528h-258v178h453v-1882h-453v176z" />
<glyph unicode="^" horiz-adv-x="1177" d="M244 944l303 363h92l295 -363h-219l-133 172l-131 -172h-207z" />
<glyph unicode="_" horiz-adv-x="1556" d="M246 0v139h1065v-139h-1065z" />
<glyph unicode="`" horiz-adv-x="1308" d="M418 1061l74 201l450 -226l-41 -114z" />
<glyph unicode="a" horiz-adv-x="1716" d="M102 0v233h156l541 1207h119l540 -1207h156v-233h-535v233h111l-66 150h-542l-64 -150h123v-233h-539zM670 586h368l-184 430z" />
<glyph unicode="b" horiz-adv-x="1648" d="M238 0v233h157v973h-157v234h618q269 0 403 -102t134 -279q0 -116 -65 -198.5t-187 -125.5q146 -42 218.5 -125.5t72.5 -201.5q0 -125 -76 -218.5t-205.5 -141.5t-294.5 -48h-618zM649 233h219q151 0 220 56.5t69 144.5q0 84 -85 142q-84 57 -259 57h-6h-158v-400z M649 815h182h5q142 0 216 61q76 62 76 152q0 79 -64 128.5t-196 49.5h-219v-391z" />
<glyph unicode="c" horiz-adv-x="1744" d="M205 721q0 153 56.5 291t151.5 237t225 157t271 58q99 0 177.5 -16t120.5 -36.5t71.5 -48t38 -43.5t12.5 -30l-16 150h229l2 -488h-229q-6 123 -111 198t-252 75q-218 0 -345.5 -141.5t-127.5 -366.5q0 -140 70 -256.5t184 -181t244 -64.5q81 0 156.5 10t125 24.5t87 29 t54.5 24.5l17 10l78 -217q-7 -5 -21.5 -13t-62 -29t-99.5 -37t-133 -29t-165 -13q-231 0 -415 93t-289 264t-105 389z" />
<glyph unicode="d" horiz-adv-x="1914" d="M238 0v233h157v973h-157v234h700q220 0 396 -92t275 -256.5t99 -370.5q0 -152 -59 -286t-160.5 -229.5t-245 -150.5t-305.5 -55h-700zM651 233h289q211 0 353.5 137.5t142.5 346.5q0 213 -140 351t-356 138h-289v-973z" />
<glyph unicode="e" horiz-adv-x="1562" d="M238 0v233h157v973h-157v234h1093v-393h-217v159h-465v-403h348v-225h-348v-345h465v160h217v-393h-1093z" />
<glyph unicode="f" horiz-adv-x="1482" d="M238 0v233h157v973h-157v234h1093v-393h-217v159h-467v-420h350v-225h-350v-328h256v-233h-665z" />
<glyph unicode="g" horiz-adv-x="1818" d="M205 721q0 153 56.5 291t151.5 237t225 157t271 58q99 0 177.5 -16t120.5 -36.5t71.5 -48t38 -43.5t12.5 -30l-16 174h231v-512h-229q-5 115 -102.5 194t-260.5 79q-218 0 -345.5 -141.5t-127.5 -366.5q0 -217 148 -359.5t372 -142.5q175 0 328 57v256h-401v228h647v-617 q-9 -7 -25.5 -18t-72 -39t-116 -50t-154 -39.5t-189.5 -17.5q-179 0 -331.5 57t-257 156t-163.5 237t-59 296z" />
<glyph unicode="h" horiz-adv-x="1998" d="M238 0v233h157v973h-157v234h569v-234h-158v-413h703v413h-158v234h569v-234h-157v-973h155v-233h-567v233h158v334h-703v-334h156v-233h-567z" />
<glyph unicode="i" horiz-adv-x="1042" d="M238 0v233h157v973h-157v234h569v-234h-158v-973h158v-233h-569z" />
<glyph unicode="j" horiz-adv-x="1310" d="M96 82l97 209q5 -3 14 -8.5t37.5 -19.5t58 -24.5t72.5 -19t84 -8.5q58 0 100 15t66 39t38 63t18.5 77t4.5 91v710h-209v234h623v-234h-156v-712q0 -255 -113 -387t-368 -132q-64 0 -125 11t-103 26.5t-74.5 31.5t-48.5 27z" />
<glyph unicode="k" horiz-adv-x="1726" d="M238 0v233h157v973h-157v234h536v-234h-125v-471l410 471h-105v234h590v-234h-178l-459 -524l457 -449h180v-233h-590v233h90l-395 383v-383h125v-233h-536z" />
<glyph unicode="l" horiz-adv-x="1486" d="M238 0v233h157v973h-157v234h630v-234h-219v-973h465v160h217v-393h-1093z" />
<glyph unicode="m" horiz-adv-x="2277" d="M238 0v233h163l29 973h-192v234h346l563 -1043l549 1043h346v-234h-193l27 -973h164v-233h-567v233h159l-4 635l-414 -868h-149l-418 854l-4 -621h162v-233h-567z" />
<glyph unicode="n" horiz-adv-x="1990" d="M238 0v233h157v973h-157v234h307l821 -961v727h-158v234h570v-234h-158v-1206h-190l-781 944v-711h158v-233h-569z" />
<glyph unicode="o" d="M205 721q0 153 59.5 291t162 237t245 157t301.5 58q220 0 396 -95.5t275 -265.5t99 -382q0 -157 -59 -295t-160.5 -236.5t-245 -155.5t-305.5 -57q-163 0 -305.5 56.5t-244 155t-160 237t-58.5 295.5zM479 717q0 -142 65.5 -260.5t179.5 -187t251 -68.5 q210 0 352.5 148.5t142.5 367.5q0 146 -63 264.5t-176.5 186t-255.5 67.5q-213 0 -354.5 -148t-141.5 -370z" />
<glyph unicode="p" horiz-adv-x="1581" d="M238 0v233h157v973h-157v234h598q279 0 427 -139.5t148 -372.5q0 -236 -155.5 -373t-469.5 -137h-137v-185h244v-233h-655zM649 643h168q168 0 244 78t76 207q0 278 -320 278h-168v-563z" />
<glyph unicode="q" d="M205 721q0 153 59.5 291t162 237t245 157t301.5 58q220 0 396 -95.5t275 -265.5t99 -382q0 -268 -162 -467t-420 -256q17 -13 44 -25.5t94 -26.5t151 -14q65 0 116.5 9t69.5 17l19 9l76 -205q-40 -18 -121 -37.5t-172 -19.5q-93 0 -183.5 22t-156 52.5t-128 73.5t-98 75 t-67.5 66q-268 53 -434 252t-166 475zM479 717q0 -142 65.5 -260.5t179.5 -187t251 -68.5q133 0 247.5 70.5t181 189.5t66.5 256q0 146 -63 264.5t-176.5 186t-255.5 67.5q-213 0 -354.5 -148t-141.5 -370z" />
<glyph unicode="r" horiz-adv-x="1720" d="M240 0v233h155v973h-155v234h616q279 0 427.5 -139.5t148.5 -372.5q0 -319 -273 -443q29 -25 58.5 -63t52 -69t50.5 -60.5t67 -46.5t88 -17h57v-225q-53 -12 -137 -12q-73 0 -131.5 18.5t-96.5 49.5t-68.5 69.5t-54.5 81.5t-46 81.5t-51.5 73.5t-63.5 54q-25 -2 -76 -2 h-158v-185h197v-233h-606zM649 643h189q168 0 243.5 78t75.5 207q0 278 -319 278h-189v-563z" />
<glyph unicode="s" horiz-adv-x="1441" d="M215 451h229v-27q0 -47 16.5 -84.5t43.5 -61t64.5 -38.5t76 -21t80.5 -6q116 0 177 50.5t61 125.5q0 51 -24 87t-92.5 75.5t-197.5 87.5q-203 77 -290 181.5t-87 246.5q0 78 30 149t85 126.5t140 88.5t188 33q52 0 97 -11.5t70.5 -25.5t47 -34.5t27 -28t10.5 -16.5 l-19 92h230l2 -424h-230v67q-13 154 -221 154q-101 0 -151 -46t-50 -118q0 -74 63 -127.5t218 -116.5q120 -47 200.5 -95t127.5 -102t66.5 -112t19.5 -131q0 -188 -126.5 -301t-318.5 -113q-79 0 -144 15t-101.5 36t-61.5 42t-34 36l-9 15l18 -119h-229z" />
<glyph unicode="t" horiz-adv-x="1529" d="M160 1047v393h1210v-393h-217v159h-256v-973h158v-233h-570v233h156v973h-264v-159h-217z" />
<glyph unicode="u" horiz-adv-x="1912" d="M199 1206v234h569v-234h-158v-610q0 -389 342 -389q351 0 351 391v608h-158v234h569v-234h-158v-610q0 -158 -43.5 -278t-124 -195t-190 -112.5t-246.5 -37.5q-280 0 -438 155t-158 468v610h-157z" />
<glyph unicode="v" horiz-adv-x="1808" d="M96 1206v234h590v-234h-119l340 -780l340 780h-127v234h590v-234h-197l-528 -1206h-160l-528 1206h-201z" />
<glyph unicode="w" horiz-adv-x="2371" d="M106 1206v234h590v-234h-145l207 -725l356 959h146l360 -957v-4l205 727h-152v234h590v-234h-168l-366 -1206h-170l-375 954l-369 -954h-168l-371 1206h-170z" />
<glyph unicode="x" horiz-adv-x="1744" d="M193 0l2 2v231h174l346 455l-359 518h-161v234h553v-234h-91l215 -319l222 319h-97v234h553v-234h-168l-354 -497l350 -476h172v-231l2 -2h-555v233h76l-205 277l-202 -277h82v-233h-555z" />
<glyph unicode="y" horiz-adv-x="1601" d="M102 1206v234h553v-234h-118l266 -434l264 434h-123v234h553v-234h-147l-422 -667v-306h155v-233h-569v233h158v308l-422 665h-148z" />
<glyph unicode="z" horiz-adv-x="1628" d="M201 0v180l868 1026h-598v-217h-217v451h1155v-191l-860 -1016h625v207h217v-440h-1190z" />
<glyph unicode="{" horiz-adv-x="919" d="M164 416v166h47q72 0 99.5 32t27.5 101v364q0 181 99.5 278t287.5 97v-190q-98 0 -143 -46t-45 -159v-330q0 -96 -31 -143.5t-119 -87.5q88 -40 119 -87t31 -145v-327q0 -114 45 -160.5t143 -46.5v-189q-188 0 -287.5 96t-99.5 277v367q0 69 -27.5 101t-99.5 32h-47z" />
<glyph unicode="|" horiz-adv-x="804" d="M309 -442v1912h187v-1912h-187z" />
<glyph unicode="}" horiz-adv-x="919" d="M195 -268q98 0 143 46.5t45 160.5v327q0 98 30.5 145t118.5 87q-88 40 -118.5 87t-30.5 144v330q0 113 -45 159t-143 46v190q188 0 287.5 -97t99.5 -278v-364q0 -69 27.5 -101t99.5 -32h47v-166h-47q-72 0 -99.5 -32t-27.5 -101v-367q0 -181 -99.5 -277t-287.5 -96v189z " />
<glyph unicode="~" horiz-adv-x="1398" d="M250 688q4 7 11 19t33 43t57.5 54.5t84.5 42.5t113 19q51 0 99 -18t78.5 -39t65.5 -39t62 -18q25 0 48 10.5t39 26t28 31t18 26.5l6 10l152 -88q-3 -8 -10 -22t-33 -49t-57 -61.5t-83.5 -48.5t-111.5 -22q-48 0 -92 17.5t-71.5 39t-64.5 39t-73 17.5q-27 0 -53.5 -10.5 t-44.5 -26t-33 -30.5t-22 -25l-7 -11z" />
<glyph unicode="&#xa1;" horiz-adv-x="847" d="M270 1364q0 65 44 109.5t110 44.5q64 0 109 -45t45 -109q0 -63 -45 -108.5t-109 -45.5q-65 0 -109.5 45t-44.5 109zM295 0l49 1081h160l49 -1081h-258z" />
<glyph unicode="&#xa2;" horiz-adv-x="1431" d="M188 721q0 149 73.5 276.5t200.5 208.5t281 99v196h205v-203q79 -11 150.5 -33.5t103.5 -39.5l31 -17l-72 -194q-18 9 -48 23t-111.5 37.5t-149.5 23.5q-194 0 -309 -106.5t-115 -274.5q0 -161 115 -268t288 -107q89 0 175.5 22t127.5 44l42 22l61 -194q-5 -4 -14.5 -9.5 t-42 -21.5t-67.5 -29t-89.5 -26t-110.5 -17v-235h-202v243q-239 40 -381 198.5t-142 381.5z" />
<glyph unicode="&#xa3;" horiz-adv-x="1394" d="M219 233h154v207h-152l-2 234h152v205q-2 274 118.5 416.5t393.5 142.5q59 0 115 -11t94 -27t68 -31.5t44 -26.5l15 -11l-97 -209q-4 3 -12 8.5t-33.5 19.5t-51.5 24.5t-64 19t-74 8.5q-81 0 -134 -24t-79 -71.5t-35.5 -100t-9.5 -127.5v-205h274v-234h-272v-207h538 v-233h-948z" />
<glyph unicode="&#xa5;" horiz-adv-x="1679" d="M143 1206v234h553v-234h-118l264 -432h2l264 432h-123v234h553v-234h-147l-275 -432h184v-178h-296l-35 -57v-74h331v-178h-331v-54h155v-233h-569v233h158v54h-338v178h338v76l-35 55h-303v178h190l-274 432h-148z" />
<glyph unicode="&#xa6;" horiz-adv-x="813" d="M313 410h187v-852h-187v852zM313 655v785h187v-785h-187z" />
<glyph unicode="&#xa7;" horiz-adv-x="1447" d="M201 219h229v-26q0 -47 16.5 -84.5t43.5 -61t64.5 -38.5t76 -21t80.5 -6q116 0 176.5 50.5t60.5 125.5q0 51 -24 87t-92 75.5t-197 87.5q-197 77 -282 182t-85 246q0 137 88 245q-71 95 -71 230q0 78 30 149t84.5 126.5t139.5 88.5t188 33q52 0 97 -12t70.5 -26t47 -34.5 t27 -28t10.5 -16.5l-18 119h229l2 -450h-229v67q-13 154 -242 154q-90 0 -135 -46.5t-45 -117.5q0 -75 60.5 -129.5t209.5 -114.5q233 -94 323.5 -194.5t90.5 -245.5q0 -148 -84 -256q67 -86 67 -219q0 -188 -126 -301t-318 -113q-79 0 -144 14.5t-101.5 35.5t-61.5 42.5 t-34 35.5l-9 15l18 -118h-229zM524 842q0 -74 61 -127.5t210 -116.5q71 -28 139 -61q31 42 31 96q0 51 -24 87t-92.5 75.5t-197.5 87.5q-42 15 -104 47q-23 -39 -23 -88z" />
<glyph unicode="&#xa8;" horiz-adv-x="1308" d="M330 1079q0 54 38 91.5t91 37.5q54 0 91.5 -37.5t37.5 -91.5q0 -53 -37.5 -91t-91.5 -38q-53 0 -91 38t-38 91zM721 1079q0 54 37.5 91.5t91.5 37.5q53 0 90 -37.5t37 -91.5q0 -53 -37.5 -91t-89.5 -38q-54 0 -91.5 38t-37.5 91z" />
<glyph unicode="&#xa9;" horiz-adv-x="1925" d="M203 719q0 151 60 289t162 238t242.5 159t295.5 59t295.5 -59t242 -159t161.5 -238t60 -289q0 -202 -101.5 -373t-276.5 -271t-381 -100q-155 0 -295.5 59t-242.5 159t-162 237.5t-60 288.5zM371 719q0 -160 79 -295.5t215.5 -215t297.5 -79.5t297.5 79.5t215 215 t78.5 295.5q0 120 -46.5 229.5t-125.5 189t-188.5 126.5t-230.5 47q-161 0 -297.5 -79.5t-215.5 -216t-79 -296.5zM575 725q0 174 119 288.5t305 114.5q135 0 252 -67l-49 -160q-98 55 -203 55q-111 0 -174 -62.5t-63 -168.5q0 -104 64 -166.5t175 -62.5q110 0 209 57 l47 -160q-118 -71 -258 -71q-187 0 -305.5 113.5t-118.5 289.5z" />
<glyph unicode="&#xaa;" horiz-adv-x="1060" d="M233 870v107h64l195 459h75l197 -459h63v-107h-221v107h43l-16 43h-201l-18 -43h47v-107h-228zM471 1118h119l-62 146z" />
<glyph unicode="&#xab;" horiz-adv-x="1222" d="M188 354l215 334h218l-224 -334l224 -336h-218zM543 354l215 334h217l-223 -334l223 -336h-217z" />
<glyph unicode="&#xac;" horiz-adv-x="1415" d="M266 477v180h879v-448h-197v268h-682z" />
<glyph unicode="&#xad;" horiz-adv-x="1040" d="M266 412v178h508v-178h-508z" />
<glyph unicode="&#xae;" horiz-adv-x="1161" d="M213 1087q0 157 107.5 267t259.5 110q154 0 261 -110t107 -267q0 -153 -107.5 -262.5t-260.5 -109.5q-152 0 -259.5 109t-107.5 263zM297 1087q0 -122 83 -208t200 -86q118 0 200 86.5t82 207.5q0 124 -82 211.5t-200 87.5q-117 0 -200 -88t-83 -211zM438 889v401h119 q89 0 132.5 -33t43.5 -90q0 -37 -20.5 -69t-55.5 -51l103 -158h-105l-73 139h-58v-139h-86zM524 1098h35q37 0 58.5 17.5t21.5 49.5q0 24 -20.5 39t-55.5 15h-39v-121z" />
<glyph unicode="&#xaf;" horiz-adv-x="1308" d="M360 971v176h588v-176h-588z" />
<glyph unicode="&#xb0;" horiz-adv-x="1114" d="M213 1161q0 142 99 238t245 96t245 -96t99 -238t-99.5 -241t-244.5 -99t-244.5 99t-99.5 241zM391 1161q0 -76 48 -125t118 -49t118 49t48 125q0 74 -48 119t-118 45q-71 0 -118.5 -44.5t-47.5 -119.5z" />
<glyph unicode="&#xb1;" horiz-adv-x="1232" d="M254 135v180h725v-180h-725zM254 645v180h274l2 277l181 -2v-275h268v-180h-268v-262l-183 2v260h-274z" />
<glyph unicode="&#xb2;" horiz-adv-x="937" d="M258 1415q7 5 20.5 13.5t62.5 22t105 13.5q104 0 163 -57t59 -139q0 -63 -19 -101t-65 -84l-99 -104h187v-125h-410v84q110 98 182 184q78 93 78 131q0 32 -22.5 53t-71.5 21q-43 0 -76 -10.5t-45 -20.5l-12 -10z" />
<glyph unicode="&#xb3;" horiz-adv-x="864" d="M244 889l35 131q5 -5 15 -12t43.5 -19t70.5 -12t58 15t21 34q0 64 -88 64q-14 0 -30 -3t-25 -5l-10 -3l-25 97q80 98 121 149h-158v125h328v-102l-119 -154q146 -27 146 -170q0 -81 -56.5 -132.5t-160.5 -51.5q-50 0 -91.5 12t-58.5 24z" />
<glyph unicode="&#xb4;" horiz-adv-x="1308" d="M418 1036l450 226l74 -201l-483 -139z" />
<glyph unicode="&#xb6;" horiz-adv-x="1830" d="M172 928q0 233 148.5 372.5t427.5 139.5h874v-234h-164v-1206h-229v1206h-207v-1206h-229v418q-312 0 -466.5 137t-154.5 373z" />
<glyph unicode="&#xb7;" horiz-adv-x="839" d="M266 688q0 64 44.5 109t109.5 45q64 0 108.5 -45.5t44.5 -108.5q0 -64 -44.5 -108.5t-108.5 -44.5q-66 0 -110 44t-44 109z" />
<glyph unicode="&#xb8;" horiz-adv-x="1308" d="M401 -436l60 121q6 -5 19 -13t57 -21t94 -13q53 0 76.5 17t23.5 58q0 77 -207 82l-24 31l73 203h172l-49 -125q85 -3 146 -51t61 -140q0 -101 -71 -163t-195 -62q-63 0 -122 19t-87 38z" />
<glyph unicode="&#xb9;" horiz-adv-x="868" d="M240 1366l233 90h55v-475h97v-125h-346v125h116v315l-121 -47z" />
<glyph unicode="&#xba;" horiz-adv-x="1060" d="M217 1161q0 129 90.5 216t222.5 87t223 -87t91 -216t-91 -219t-223 -90t-222.5 90t-90.5 219zM379 1161q0 -69 43.5 -113t107.5 -44t108 44t44 113q0 67 -44 108.5t-108 41.5q-65 0 -108 -41t-43 -109z" />
<glyph unicode="&#xbb;" horiz-adv-x="1224" d="M248 18l225 336l-225 334h219l215 -334l-215 -336h-219zM602 18l225 336l-225 334h219l215 -334l-215 -336h-219z" />
<glyph unicode="&#xbc;" horiz-adv-x="1562" d="M190 66l1010 1458l129 -90l-1012 -1465zM219 1366l234 90h55v-475h96v-125h-346v125h117v315l-121 -47zM883 166v98l288 316h134v-291h59v-123h-59v-68h61v-98h-297v98h102v68h-288zM1057 289h114v127z" />
<glyph unicode="&#xbd;" horiz-adv-x="1542" d="M190 66l1010 1458l129 -90l-1012 -1465zM219 1366l234 90h55v-475h96v-125h-346v125h117v315l-121 -47zM918 559q7 5 20.5 13.5t62.5 22t105 13.5q104 0 162.5 -56.5t58.5 -139.5q0 -63 -19 -101t-65 -84l-98 -104h186v-125h-409v84q110 98 182 184q78 93 78 131 q0 32 -23 53t-72 21q-43 0 -76 -10.5t-45 -20.5l-12 -10z" />
<glyph unicode="&#xbe;" horiz-adv-x="1566" d="M195 66l1009 1458l129 -90l-1011 -1465zM221 889l35 131q5 -5 15 -12t43.5 -19t70.5 -12t58.5 15t21.5 34q0 64 -88 64q-14 0 -30.5 -3t-26.5 -5l-9 -3l-24 97q80 98 121 149h-158v125h328v-102l-119 -154q145 -27 145 -170q0 -81 -56.5 -132.5t-160.5 -51.5 q-50 0 -91.5 12t-57.5 24zM887 166v98l289 316h133v-291h59v-123h-59v-68h61v-98h-297v98h103v68h-289zM1061 289h115v127z" />
<glyph unicode="&#xbf;" horiz-adv-x="1103" d="M156 352q0 69 22 127.5t56.5 100t77 79t84.5 73.5t76.5 74t56.5 89t22 111v45h207v-76q0 -70 -19 -129.5t-48.5 -101.5t-66 -79t-73 -69t-66 -64t-48.5 -72t-19 -85q0 -87 60.5 -131.5t170.5 -44.5q40 0 80.5 7t69 17.5t52 20.5t35.5 17l11 7l45 -205q-183 -94 -340 -94 q-108 0 -195 31.5t-140.5 85.5t-82 122t-28.5 144zM504 1331q0 65 44.5 109.5t108.5 44.5q66 0 110 -44.5t44 -109.5q0 -64 -44.5 -108.5t-109.5 -44.5q-64 0 -108.5 45t-44.5 108z" />
<glyph unicode="&#xc0;" horiz-adv-x="1720" d="M115 0v233h155l437 973h-246v234h471l538 -1207h156v-233h-534v233h110l-65 150h-543l-64 -150h123v-233h-538zM608 1688l74 200l451 -225l-41 -115zM682 586h369l-185 430z" />
<glyph unicode="&#xc1;" horiz-adv-x="1720" d="M115 0v233h155l437 973h-246v234h471l538 -1207h156v-233h-534v233h110l-65 150h-543l-64 -150h123v-233h-538zM608 1663l451 225l74 -200l-484 -140zM682 586h369l-185 430z" />
<glyph unicode="&#xc2;" horiz-adv-x="1720" d="M115 0v233h155l437 973h-246v234h471l538 -1207h156v-233h-534v233h110l-65 150h-543l-64 -150h123v-233h-538zM524 1636l303 363h93l294 -363h-219l-133 172l-131 -172h-207zM682 586h369l-185 430z" />
<glyph unicode="&#xc3;" horiz-adv-x="1720" d="M115 0v233h155l437 973h-246v234h471l538 -1207h156v-233h-534v233h110l-65 150h-543l-64 -150h123v-233h-538zM422 1690q4 7 11 19t33 43t57.5 54.5t84.5 42.5t113 19q51 0 99 -18t78.5 -39.5t65.5 -39.5t62 -18q39 0 74 26.5t50 52.5l15 26l152 -89q-3 -8 -10 -21.5 t-33 -48.5t-57 -61.5t-83.5 -48.5t-111.5 -22q-48 0 -92 17.5t-71.5 38.5t-64.5 38.5t-73 17.5q-27 0 -53.5 -10.5t-44.5 -25.5t-33 -30t-22 -25l-7 -11zM682 586h369l-185 430z" />
<glyph unicode="&#xc4;" horiz-adv-x="1720" d="M115 0v233h155l437 973h-246v234h471l538 -1207h156v-233h-534v233h110l-65 150h-543l-64 -150h123v-233h-538zM547 1706q0 54 38 91.5t91 37.5q54 0 91.5 -37.5t37.5 -91.5q0 -53 -37.5 -91t-91.5 -38q-52 0 -90.5 38.5t-38.5 90.5zM682 586h369l-185 430zM938 1706 q0 54 37.5 91.5t91.5 37.5q53 0 90 -37.5t37 -91.5q0 -53 -37.5 -91t-89.5 -38q-54 0 -91.5 38t-37.5 91z" />
<glyph unicode="&#xc5;" horiz-adv-x="1720" d="M115 0v233h155l437 973h-246v234h471l538 -1207h156v-233h-534v233h110l-65 150h-543l-64 -150h123v-233h-538zM629 1796q0 97 67.5 165.5t173.5 68.5t174 -69t68 -165q0 -98 -68 -165.5t-174 -67.5t-173.5 67.5t-67.5 165.5zM682 586h369l-185 430zM768 1796 q0 -52 29.5 -84.5t72.5 -32.5q44 0 73.5 32.5t29.5 84.5q0 50 -30 83.5t-73 33.5t-72.5 -32.5t-29.5 -84.5z" />
<glyph unicode="&#xc6;" horiz-adv-x="2125" d="M117 0v233h174l514 973h-209v234h1298l-2 -393h-217v159h-463v-403h347v-225h-347v-345h463v160h217v-160h2v-233h-936v383h-321l-80 -150h123v-233h-563zM743 586h215v401z" />
<glyph unicode="&#xc7;" horiz-adv-x="1744" d="M205 721q0 153 56.5 291t151.5 237t225 157t271 58q99 0 177.5 -16t120.5 -36.5t71.5 -48t38 -43.5t12.5 -30l-16 150h229l2 -488h-229q-6 123 -111 198t-252 75q-218 0 -345.5 -141.5t-127.5 -366.5q0 -140 70 -256.5t184 -181t244 -64.5q81 0 156.5 10t125 24.5t87 29 t54.5 24.5l17 10l78 -217q-6 -4 -18 -11t-53 -26t-86 -34t-115 -29.5t-142 -18.5l-28 -73q85 -3 146 -51t61 -140q0 -101 -71.5 -163t-195.5 -62q-63 0 -121.5 19t-85.5 38l-28 19l59 121q6 -5 19 -13t57 -21t94 -13q53 0 76.5 17t23.5 58q0 77 -206 82l-25 31l55 156 q-154 15 -284 74.5t-223.5 154.5t-146 226.5t-52.5 283.5z" />
<glyph unicode="&#xc8;" horiz-adv-x="1562" d="M238 0v233h157v973h-157v234h1093v-393h-217v159h-465v-403h348v-225h-348v-345h465v160h217v-393h-1093zM578 1688l73 200l451 -225l-41 -115z" />
<glyph unicode="&#xc9;" horiz-adv-x="1562" d="M238 0v233h157v973h-157v234h1093v-393h-217v159h-465v-403h348v-225h-348v-345h465v160h217v-393h-1093zM578 1663l450 225l74 -200l-484 -140z" />
<glyph unicode="&#xca;" horiz-adv-x="1562" d="M238 0v233h157v973h-157v234h1093v-393h-217v159h-465v-403h348v-225h-348v-345h465v160h217v-393h-1093zM496 1636l303 363h92l295 -363h-219l-133 172l-132 -172h-206z" />
<glyph unicode="&#xcb;" horiz-adv-x="1562" d="M238 0v233h157v973h-157v234h1093v-393h-217v159h-465v-403h348v-225h-348v-345h465v160h217v-393h-1093zM516 1706q0 54 38 91.5t91 37.5q54 0 91.5 -37.5t37.5 -91.5q0 -53 -37.5 -91t-91.5 -38q-53 0 -91 38.5t-38 90.5zM907 1706q0 54 37.5 91.5t91.5 37.5 q53 0 90 -37.5t37 -91.5q0 -53 -37.5 -91t-89.5 -38q-54 0 -91.5 38t-37.5 91z" />
<glyph unicode="&#xcc;" horiz-adv-x="1042" d="M238 0v233h157v973h-157v234h569v-234h-158v-973h158v-233h-569zM262 1688l74 200l450 -225l-41 -115z" />
<glyph unicode="&#xcd;" horiz-adv-x="1042" d="M238 0v233h157v973h-157v234h569v-234h-158v-973h158v-233h-569zM262 1663l451 225l73 -200l-483 -140z" />
<glyph unicode="&#xce;" horiz-adv-x="1042" d="M178 1636l303 363h92l295 -363h-219l-133 172l-131 -172h-207zM238 0v233h157v973h-157v234h569v-234h-158v-973h158v-233h-569z" />
<glyph unicode="&#xcf;" horiz-adv-x="1042" d="M238 0v233h157v973h-157v234h569v-234h-158v-973h158v-233h-569zM238 1706q0 54 38 91.5t91 37.5q54 0 91.5 -37.5t37.5 -91.5q0 -53 -37.5 -91t-91.5 -38q-53 0 -91 38.5t-38 90.5zM629 1706q0 54 37.5 91.5t91.5 37.5q53 0 90 -37.5t37 -91.5q0 -53 -37.5 -91 t-89.5 -38q-54 0 -91.5 38t-37.5 91z" />
<glyph unicode="&#xd0;" horiz-adv-x="1916" d="M240 0v233h157v379h-110v179h110v415h-157v234h700q220 0 396 -92t275 -256.5t99 -370.5q0 -152 -59 -286t-160.5 -229.5t-245 -150.5t-305.5 -55h-700zM653 233h289q211 0 353.5 137.5t142.5 346.5q0 213 -140 351t-356 138h-289v-415h142v-179h-142v-379z" />
<glyph unicode="&#xd1;" horiz-adv-x="1990" d="M238 0v233h157v973h-157v234h307l821 -961v727h-158v234h570v-234h-158v-1206h-190l-781 944v-711h158v-233h-569zM504 1690q4 7 11 19t33 43t57.5 54.5t84.5 42.5t113 19q51 0 99 -18t78.5 -39.5t65.5 -39.5t62 -18q39 0 74 26.5t50 52.5l15 26l152 -89q-3 -8 -10 -21.5 t-33 -48.5t-57 -61.5t-83.5 -48.5t-111.5 -22q-48 0 -92 17.5t-71.5 38.5t-64.5 38.5t-73 17.5q-27 0 -53.5 -10.5t-44.5 -25.5t-33 -30t-22 -25l-7 -11z" />
<glyph unicode="&#xd2;" d="M205 721q0 153 59.5 291t162 237t245 157t301.5 58q220 0 396 -95.5t275 -265.5t99 -382q0 -157 -59 -295t-160.5 -236.5t-245 -155.5t-305.5 -57q-163 0 -305.5 56.5t-244 155t-160 237t-58.5 295.5zM479 717q0 -142 65.5 -260.5t179.5 -187t251 -68.5 q210 0 352.5 148.5t142.5 367.5q0 146 -63 264.5t-176.5 186t-255.5 67.5q-213 0 -354.5 -148t-141.5 -370zM715 1688l73 200l451 -225l-41 -115z" />
<glyph unicode="&#xd3;" d="M205 721q0 153 59.5 291t162 237t245 157t301.5 58q220 0 396 -95.5t275 -265.5t99 -382q0 -157 -59 -295t-160.5 -236.5t-245 -155.5t-305.5 -57q-163 0 -305.5 56.5t-244 155t-160 237t-58.5 295.5zM479 717q0 -142 65.5 -260.5t179.5 -187t251 -68.5 q210 0 352.5 148.5t142.5 367.5q0 146 -63 264.5t-176.5 186t-255.5 67.5q-213 0 -354.5 -148t-141.5 -370zM715 1663l450 225l74 -200l-483 -140z" />
<glyph unicode="&#xd4;" d="M205 721q0 153 59.5 291t162 237t245 157t301.5 58q220 0 396 -95.5t275 -265.5t99 -382q0 -157 -59 -295t-160.5 -236.5t-245 -155.5t-305.5 -57q-163 0 -305.5 56.5t-244 155t-160 237t-58.5 295.5zM479 717q0 -142 65.5 -260.5t179.5 -187t251 -68.5 q210 0 352.5 148.5t142.5 367.5q0 146 -63 264.5t-176.5 186t-255.5 67.5q-213 0 -354.5 -148t-141.5 -370zM631 1636l303 363h92l295 -363h-219l-133 172l-131 -172h-207z" />
<glyph unicode="&#xd5;" d="M205 721q0 153 59.5 291t162 237t245 157t301.5 58q220 0 396 -95.5t275 -265.5t99 -382q0 -157 -59 -295t-160.5 -236.5t-245 -155.5t-305.5 -57q-163 0 -305.5 56.5t-244 155t-160 237t-58.5 295.5zM479 717q0 -142 65.5 -260.5t179.5 -187t251 -68.5 q210 0 352.5 148.5t142.5 367.5q0 146 -63 264.5t-176.5 186t-255.5 67.5q-213 0 -354.5 -148t-141.5 -370zM528 1690q4 7 11 19t33 43t57.5 54.5t84.5 42.5t113 19q51 0 99 -18t79 -39.5t66 -39.5t62 -18q39 0 74 26.5t50 52.5l15 26l151 -89q-3 -8 -10 -21.5t-33 -48.5 t-57 -61.5t-83.5 -48.5t-111.5 -22q-48 0 -92 17.5t-71.5 38.5t-64.5 38.5t-73 17.5q-27 0 -53 -10.5t-44.5 -25.5t-33 -30t-21.5 -25l-7 -11z" />
<glyph unicode="&#xd6;" d="M205 721q0 153 59.5 291t162 237t245 157t301.5 58q220 0 396 -95.5t275 -265.5t99 -382q0 -157 -59 -295t-160.5 -236.5t-245 -155.5t-305.5 -57q-163 0 -305.5 56.5t-244 155t-160 237t-58.5 295.5zM479 717q0 -142 65.5 -260.5t179.5 -187t251 -68.5 q210 0 352.5 148.5t142.5 367.5q0 146 -63 264.5t-176.5 186t-255.5 67.5q-213 0 -354.5 -148t-141.5 -370zM653 1706q0 54 38 91.5t91 37.5q54 0 91.5 -37.5t37.5 -91.5q0 -53 -37.5 -91t-91.5 -38q-52 0 -90.5 38.5t-38.5 90.5zM1044 1706q0 54 38 91.5t92 37.5 q53 0 89.5 -37.5t36.5 -91.5q0 -53 -37 -91t-89 -38q-54 0 -92 38t-38 91z" />
<glyph unicode="&#xd7;" horiz-adv-x="1167" d="M250 375l211 215l-211 215l123 125l209 -215l211 215l125 -125l-213 -215l213 -215l-125 -123l-211 213l-209 -213z" />
<glyph unicode="&#xd8;" d="M205 721q0 153 59.5 291t162 237t245 157t301.5 58q227 0 413 -106l89 117l139 -105l-88 -117q103 -100 160 -236.5t57 -295.5q0 -157 -59 -295t-160.5 -236.5t-245 -155.5t-305.5 -57q-194 0 -355 76l-71 -94l-139 104l63 84q-126 101 -196 249.5t-70 324.5zM479 717 q0 -107 37.5 -202t106.5 -167l614 813q-117 74 -262 74q-213 0 -354.5 -148t-141.5 -370zM764 248q96 -47 211 -47q210 0 352.5 148.5t142.5 367.5q0 186 -104 325z" />
<glyph unicode="&#xd9;" horiz-adv-x="1912" d="M199 1206v234h569v-234h-158v-610q0 -389 342 -389q351 0 351 391v608h-158v234h569v-234h-158v-610q0 -158 -43.5 -278t-124 -195t-190 -112.5t-246.5 -37.5q-280 0 -438 155t-158 468v610h-157zM694 1688l74 200l451 -225l-41 -115z" />
<glyph unicode="&#xda;" horiz-adv-x="1912" d="M199 1206v234h569v-234h-158v-610q0 -389 342 -389q351 0 351 391v608h-158v234h569v-234h-158v-610q0 -158 -43.5 -278t-124 -195t-190 -112.5t-246.5 -37.5q-280 0 -438 155t-158 468v610h-157zM694 1663l451 225l74 -200l-484 -140z" />
<glyph unicode="&#xdb;" horiz-adv-x="1912" d="M199 1206v234h569v-234h-158v-610q0 -389 342 -389q351 0 351 391v608h-158v234h569v-234h-158v-610q0 -158 -43.5 -278t-124 -195t-190 -112.5t-246.5 -37.5q-280 0 -438 155t-158 468v610h-157zM610 1636l303 363h93l294 -363h-219l-133 172l-131 -172h-207z" />
<glyph unicode="&#xdc;" horiz-adv-x="1912" d="M199 1206v234h569v-234h-158v-610q0 -389 342 -389q351 0 351 391v608h-158v234h569v-234h-158v-610q0 -158 -43.5 -278t-124 -195t-190 -112.5t-246.5 -37.5q-280 0 -438 155t-158 468v610h-157zM633 1706q0 54 38 91.5t91 37.5q54 0 91.5 -37.5t37.5 -91.5 q0 -53 -37.5 -91t-91.5 -38q-52 0 -90.5 38.5t-38.5 90.5zM1024 1706q0 54 37.5 91.5t91.5 37.5q53 0 90 -37.5t37 -91.5q0 -53 -37.5 -91t-89.5 -38q-54 0 -91.5 38t-37.5 91z" />
<glyph unicode="&#xdd;" horiz-adv-x="1601" d="M102 1206v234h553v-234h-118l266 -434l264 434h-123v234h553v-234h-147l-422 -667v-306h155v-233h-569v233h158v308l-422 665h-148zM539 1663l450 225l74 -200l-483 -140z" />
<glyph unicode="&#xde;" horiz-adv-x="1507" d="M319 0v1440h254v-199h187q279 0 427 -139.5t148 -372.5q0 -236 -155 -373t-469 -137h-138v-219h-254zM573 444h168q168 0 244 78t76 207q0 279 -320 279h-168v-564z" />
<glyph unicode="&#xdf;" horiz-adv-x="1599" d="M213 0v233h158v811q0 207 128 313.5t345 106.5q211 0 337 -103t126 -300q0 -75 -25 -136.5t-61 -100.5t-72 -70t-61 -61.5t-25 -59.5q0 -26 19.5 -53.5t50 -55.5t68 -61t75 -77.5t68 -97t50 -127.5t19.5 -161h-283q0 64 -18.5 118.5t-48 94t-65.5 75.5l-71.5 71.5 t-65 73.5t-48 89t-18.5 111q0 44 13 78t34 56t46 41.5t50.5 40.5t46.5 46t34 65.5t13 92.5q0 80 -61.5 126t-141.5 46q-99 0 -151.5 -59.5t-52.5 -168.5v-764h157v-233h-569z" />
<glyph unicode="&#xe0;" horiz-adv-x="1716" d="M102 0v233h156l541 1207h119l540 -1207h156v-233h-535v233h111l-66 150h-542l-64 -150h123v-233h-539zM586 1688l73 200l451 -225l-41 -115zM670 586h368l-184 430z" />
<glyph unicode="&#xe1;" horiz-adv-x="1716" d="M102 0v233h156l541 1207h119l540 -1207h156v-233h-535v233h111l-66 150h-542l-64 -150h123v-233h-539zM586 1663l450 225l74 -200l-483 -140zM670 586h368l-184 430z" />
<glyph unicode="&#xe2;" horiz-adv-x="1716" d="M102 0v233h156l541 1207h119l540 -1207h156v-233h-535v233h111l-66 150h-542l-64 -150h123v-233h-539zM502 1636l303 363h92l295 -363h-219l-133 172l-131 -172h-207zM670 586h368l-184 430z" />
<glyph unicode="&#xe3;" horiz-adv-x="1716" d="M102 0v233h156l541 1207h119l540 -1207h156v-233h-535v233h111l-66 150h-542l-64 -150h123v-233h-539zM399 1690q4 7 11 19t33 43t57.5 54.5t84.5 42.5t113 19q51 0 99 -18t79 -39.5t66 -39.5t62 -18q39 0 74 26.5t50 52.5l15 26l151 -89q-3 -8 -10 -21.5t-33 -48.5 t-57 -61.5t-83.5 -48.5t-111.5 -22q-48 0 -92 17.5t-71.5 38.5t-64.5 38.5t-73 17.5q-27 0 -53 -10.5t-44.5 -25.5t-33 -30t-21.5 -25l-7 -11zM670 586h368l-184 430z" />
<glyph unicode="&#xe4;" horiz-adv-x="1716" d="M102 0v233h156l541 1207h119l540 -1207h156v-233h-535v233h111l-66 150h-542l-64 -150h123v-233h-539zM524 1706q0 54 38 91.5t91 37.5q54 0 91.5 -37.5t37.5 -91.5q0 -53 -37.5 -91t-91.5 -38q-53 0 -91 38.5t-38 90.5zM670 586h368l-184 430zM915 1706q0 54 37.5 91.5 t91.5 37.5q53 0 90 -37.5t37 -91.5q0 -53 -37.5 -91t-89.5 -38q-54 0 -91.5 38t-37.5 91z" />
<glyph unicode="&#xe5;" horiz-adv-x="1716" d="M102 0v233h156l541 1207h119l540 -1207h156v-233h-535v233h111l-66 150h-542l-64 -150h123v-233h-539zM606 1796q0 96 68 165t174 69t174 -69t68 -165q0 -98 -68 -165.5t-174 -67.5t-174 67.5t-68 165.5zM670 586h368l-184 430zM745 1796q0 -52 29.5 -84.5t73.5 -32.5 q43 0 72.5 32.5t29.5 84.5q0 51 -29.5 84t-72.5 33q-44 0 -73.5 -32.5t-29.5 -84.5z" />
<glyph unicode="&#xe6;" horiz-adv-x="2119" d="M111 0v233h174l637 1207h966l-2 -393h-217v159h-463v-403h346v-225h-346v-345h463v160h217v-160h2v-233h-936v383h-321l-80 -150h123v-233h-563zM737 586h215v401z" />
<glyph unicode="&#xe7;" horiz-adv-x="1744" d="M205 721q0 153 56.5 291t151.5 237t225 157t271 58q99 0 177.5 -16t120.5 -36.5t71.5 -48t38 -43.5t12.5 -30l-16 150h229l2 -488h-229q-6 123 -111 198t-252 75q-218 0 -345.5 -141.5t-127.5 -366.5q0 -140 70 -256.5t184 -181t244 -64.5q81 0 156.5 10t125 24.5t87 29 t54.5 24.5l17 10l78 -217q-6 -4 -18 -11t-53 -26t-86 -34t-115 -29.5t-142 -18.5l-28 -73q85 -3 146 -51t61 -140q0 -101 -71.5 -163t-195.5 -62q-63 0 -121.5 19t-85.5 38l-28 19l59 121q6 -5 19 -13t57 -21t94 -13q53 0 76.5 17t23.5 58q0 77 -206 82l-25 31l55 156 q-154 15 -284 74.5t-223.5 154.5t-146 226.5t-52.5 283.5z" />
<glyph unicode="&#xe8;" horiz-adv-x="1562" d="M238 0v233h157v973h-157v234h1093v-393h-217v159h-465v-403h348v-225h-348v-345h465v160h217v-393h-1093zM578 1688l73 200l451 -225l-41 -115z" />
<glyph unicode="&#xe9;" horiz-adv-x="1562" d="M238 0v233h157v973h-157v234h1093v-393h-217v159h-465v-403h348v-225h-348v-345h465v160h217v-393h-1093zM578 1663l450 225l74 -200l-484 -140z" />
<glyph unicode="&#xea;" horiz-adv-x="1562" d="M238 0v233h157v973h-157v234h1093v-393h-217v159h-465v-403h348v-225h-348v-345h465v160h217v-393h-1093zM496 1636l303 363h92l295 -363h-219l-133 172l-132 -172h-206z" />
<glyph unicode="&#xeb;" horiz-adv-x="1562" d="M238 0v233h157v973h-157v234h1093v-393h-217v159h-465v-403h348v-225h-348v-345h465v160h217v-393h-1093zM516 1706q0 54 38 91.5t91 37.5q54 0 91.5 -37.5t37.5 -91.5q0 -53 -37.5 -91t-91.5 -38q-53 0 -91 38.5t-38 90.5zM907 1706q0 54 37.5 91.5t91.5 37.5 q53 0 90 -37.5t37 -91.5q0 -53 -37.5 -91t-89.5 -38q-54 0 -91.5 38t-37.5 91z" />
<glyph unicode="&#xec;" horiz-adv-x="1042" d="M238 0v233h157v973h-157v234h569v-234h-158v-973h158v-233h-569zM262 1688l74 200l450 -225l-41 -115z" />
<glyph unicode="&#xed;" horiz-adv-x="1042" d="M238 0v233h157v973h-157v234h569v-234h-158v-973h158v-233h-569zM262 1663l451 225l73 -200l-483 -140z" />
<glyph unicode="&#xee;" horiz-adv-x="1042" d="M178 1636l303 363h92l295 -363h-219l-133 172l-131 -172h-207zM238 0v233h157v973h-157v234h569v-234h-158v-973h158v-233h-569z" />
<glyph unicode="&#xef;" horiz-adv-x="1042" d="M238 0v233h157v973h-157v234h569v-234h-158v-973h158v-233h-569zM238 1706q0 54 38 91.5t91 37.5q54 0 91.5 -37.5t37.5 -91.5q0 -53 -37.5 -91t-91.5 -38q-53 0 -91 38.5t-38 90.5zM629 1706q0 54 37.5 91.5t91.5 37.5q53 0 90 -37.5t37 -91.5q0 -53 -37.5 -91 t-89.5 -38q-54 0 -91.5 38t-37.5 91z" />
<glyph unicode="&#xf0;" horiz-adv-x="1916" d="M240 0v233h157v379h-110v179h110v415h-157v234h700q220 0 396 -92t275 -256.5t99 -370.5q0 -152 -59 -286t-160.5 -229.5t-245 -150.5t-305.5 -55h-700zM653 233h289q211 0 353.5 137.5t142.5 346.5q0 213 -140 351t-356 138h-289v-415h142v-179h-142v-379z" />
<glyph unicode="&#xf1;" horiz-adv-x="1990" d="M238 0v233h157v973h-157v234h307l821 -961v727h-158v234h570v-234h-158v-1206h-190l-781 944v-711h158v-233h-569zM504 1690q4 7 11 19t33 43t57.5 54.5t84.5 42.5t113 19q51 0 99 -18t78.5 -39.5t65.5 -39.5t62 -18q39 0 74 26.5t50 52.5l15 26l152 -89q-3 -8 -10 -21.5 t-33 -48.5t-57 -61.5t-83.5 -48.5t-111.5 -22q-48 0 -92 17.5t-71.5 38.5t-64.5 38.5t-73 17.5q-27 0 -53.5 -10.5t-44.5 -25.5t-33 -30t-22 -25l-7 -11z" />
<glyph unicode="&#xf2;" d="M205 721q0 153 59.5 291t162 237t245 157t301.5 58q220 0 396 -95.5t275 -265.5t99 -382q0 -157 -59 -295t-160.5 -236.5t-245 -155.5t-305.5 -57q-163 0 -305.5 56.5t-244 155t-160 237t-58.5 295.5zM479 717q0 -142 65.5 -260.5t179.5 -187t251 -68.5 q210 0 352.5 148.5t142.5 367.5q0 146 -63 264.5t-176.5 186t-255.5 67.5q-213 0 -354.5 -148t-141.5 -370zM715 1688l73 200l451 -225l-41 -115z" />
<glyph unicode="&#xf3;" d="M205 721q0 153 59.5 291t162 237t245 157t301.5 58q220 0 396 -95.5t275 -265.5t99 -382q0 -157 -59 -295t-160.5 -236.5t-245 -155.5t-305.5 -57q-163 0 -305.5 56.5t-244 155t-160 237t-58.5 295.5zM479 717q0 -142 65.5 -260.5t179.5 -187t251 -68.5 q210 0 352.5 148.5t142.5 367.5q0 146 -63 264.5t-176.5 186t-255.5 67.5q-213 0 -354.5 -148t-141.5 -370zM715 1663l450 225l74 -200l-483 -140z" />
<glyph unicode="&#xf4;" d="M205 721q0 153 59.5 291t162 237t245 157t301.5 58q220 0 396 -95.5t275 -265.5t99 -382q0 -157 -59 -295t-160.5 -236.5t-245 -155.5t-305.5 -57q-163 0 -305.5 56.5t-244 155t-160 237t-58.5 295.5zM479 717q0 -142 65.5 -260.5t179.5 -187t251 -68.5 q210 0 352.5 148.5t142.5 367.5q0 146 -63 264.5t-176.5 186t-255.5 67.5q-213 0 -354.5 -148t-141.5 -370zM631 1636l303 363h92l295 -363h-219l-133 172l-131 -172h-207z" />
<glyph unicode="&#xf5;" d="M205 721q0 153 59.5 291t162 237t245 157t301.5 58q220 0 396 -95.5t275 -265.5t99 -382q0 -157 -59 -295t-160.5 -236.5t-245 -155.5t-305.5 -57q-163 0 -305.5 56.5t-244 155t-160 237t-58.5 295.5zM479 717q0 -142 65.5 -260.5t179.5 -187t251 -68.5 q210 0 352.5 148.5t142.5 367.5q0 146 -63 264.5t-176.5 186t-255.5 67.5q-213 0 -354.5 -148t-141.5 -370zM528 1690q4 7 11 19t33 43t57.5 54.5t84.5 42.5t113 19q51 0 99 -18t79 -39.5t66 -39.5t62 -18q39 0 74 26.5t50 52.5l15 26l151 -89q-3 -8 -10 -21.5t-33 -48.5 t-57 -61.5t-83.5 -48.5t-111.5 -22q-48 0 -92 17.5t-71.5 38.5t-64.5 38.5t-73 17.5q-27 0 -53 -10.5t-44.5 -25.5t-33 -30t-21.5 -25l-7 -11z" />
<glyph unicode="&#xf6;" d="M205 721q0 153 59.5 291t162 237t245 157t301.5 58q220 0 396 -95.5t275 -265.5t99 -382q0 -157 -59 -295t-160.5 -236.5t-245 -155.5t-305.5 -57q-163 0 -305.5 56.5t-244 155t-160 237t-58.5 295.5zM479 717q0 -142 65.5 -260.5t179.5 -187t251 -68.5 q210 0 352.5 148.5t142.5 367.5q0 146 -63 264.5t-176.5 186t-255.5 67.5q-213 0 -354.5 -148t-141.5 -370zM653 1706q0 54 38 91.5t91 37.5q54 0 91.5 -37.5t37.5 -91.5q0 -53 -37.5 -91t-91.5 -38q-52 0 -90.5 38.5t-38.5 90.5zM1044 1706q0 54 38 91.5t92 37.5 q53 0 89.5 -37.5t36.5 -91.5q0 -53 -37 -91t-89 -38q-54 0 -92 38t-38 91z" />
<glyph unicode="&#xf7;" horiz-adv-x="1140" d="M223 504v172h695v-172h-695zM453 301q0 50 34.5 84.5t83.5 34.5t83 -34.5t34 -84.5t-34 -84.5t-83 -34.5t-83.5 34.5t-34.5 84.5zM453 879q0 49 34.5 83.5t83.5 34.5t83 -34t34 -84q0 -48 -34 -82.5t-83 -34.5t-83.5 34.5t-34.5 82.5z" />
<glyph unicode="&#xf8;" d="M205 721q0 153 59.5 291t162 237t245 157t301.5 58q227 0 413 -106l89 117l139 -105l-88 -117q103 -100 160 -236.5t57 -295.5q0 -157 -59 -295t-160.5 -236.5t-245 -155.5t-305.5 -57q-194 0 -355 76l-71 -94l-139 104l63 84q-126 101 -196 249.5t-70 324.5zM479 717 q0 -107 37.5 -202t106.5 -167l614 813q-117 74 -262 74q-213 0 -354.5 -148t-141.5 -370zM764 248q96 -47 211 -47q210 0 352.5 148.5t142.5 367.5q0 186 -104 325z" />
<glyph unicode="&#xf9;" horiz-adv-x="1912" d="M199 1206v234h569v-234h-158v-610q0 -389 342 -389q351 0 351 391v608h-158v234h569v-234h-158v-610q0 -158 -43.5 -278t-124 -195t-190 -112.5t-246.5 -37.5q-280 0 -438 155t-158 468v610h-157zM694 1688l74 200l451 -225l-41 -115z" />
<glyph unicode="&#xfa;" horiz-adv-x="1912" d="M199 1206v234h569v-234h-158v-610q0 -389 342 -389q351 0 351 391v608h-158v234h569v-234h-158v-610q0 -158 -43.5 -278t-124 -195t-190 -112.5t-246.5 -37.5q-280 0 -438 155t-158 468v610h-157zM694 1663l451 225l74 -200l-484 -140z" />
<glyph unicode="&#xfb;" horiz-adv-x="1912" d="M199 1206v234h569v-234h-158v-610q0 -389 342 -389q351 0 351 391v608h-158v234h569v-234h-158v-610q0 -158 -43.5 -278t-124 -195t-190 -112.5t-246.5 -37.5q-280 0 -438 155t-158 468v610h-157zM610 1636l303 363h93l294 -363h-219l-133 172l-131 -172h-207z" />
<glyph unicode="&#xfc;" horiz-adv-x="1912" d="M199 1206v234h569v-234h-158v-610q0 -389 342 -389q351 0 351 391v608h-158v234h569v-234h-158v-610q0 -158 -43.5 -278t-124 -195t-190 -112.5t-246.5 -37.5q-280 0 -438 155t-158 468v610h-157zM633 1706q0 54 38 91.5t91 37.5q54 0 91.5 -37.5t37.5 -91.5 q0 -53 -37.5 -91t-91.5 -38q-52 0 -90.5 38.5t-38.5 90.5zM1024 1706q0 54 37.5 91.5t91.5 37.5q53 0 90 -37.5t37 -91.5q0 -53 -37.5 -91t-89.5 -38q-54 0 -91.5 38t-37.5 91z" />
<glyph unicode="&#xfd;" horiz-adv-x="1601" d="M102 1206v234h553v-234h-118l266 -434l264 434h-123v234h553v-234h-147l-422 -667v-306h155v-233h-569v233h158v308l-422 665h-148zM539 1663l450 225l74 -200l-483 -140z" />
<glyph unicode="&#xfe;" horiz-adv-x="1507" d="M319 0v1440h254v-199h187q279 0 427 -139.5t148 -372.5q0 -236 -155 -373t-469 -137h-138v-219h-254zM573 444h168q168 0 244 78t76 207q0 279 -320 279h-168v-564z" />
<glyph unicode="&#xff;" horiz-adv-x="1601" d="M102 1206v234h553v-234h-118l266 -434l264 434h-123v234h553v-234h-147l-422 -667v-306h155v-233h-569v233h158v308l-422 665h-148zM477 1706q0 54 38 91.5t91 37.5q54 0 91.5 -37.5t37.5 -91.5q0 -53 -37.5 -91t-91.5 -38q-52 0 -90.5 38.5t-38.5 90.5zM868 1706 q0 54 37.5 91.5t91.5 37.5q53 0 90 -37.5t37 -91.5q0 -53 -37.5 -91t-89.5 -38q-54 0 -91.5 38t-37.5 91z" />
<glyph unicode="&#x152;" horiz-adv-x="2140" d="M207 721q0 153 59.5 287t161.5 228.5t243.5 149t301.5 54.5h936v-393h-217v159h-465v-403h348v-225h-348v-345h465v160h217v-393h-936q-218 0 -392.5 90.5t-274 255.5t-99.5 375zM481 717q0 -214 141.5 -353t350.5 -141v987q-214 -2 -353 -138.5t-139 -354.5z" />
<glyph unicode="&#x153;" horiz-adv-x="2140" d="M207 721q0 153 59.5 287t161.5 228.5t243.5 149t301.5 54.5h936v-393h-217v159h-465v-403h348v-225h-348v-345h465v160h217v-393h-936q-218 0 -392.5 90.5t-274 255.5t-99.5 375zM481 717q0 -214 141.5 -353t350.5 -141v987q-214 -2 -353 -138.5t-139 -354.5z" />
<glyph unicode="&#x178;" horiz-adv-x="1601" d="M102 1206v234h553v-234h-118l266 -434l264 434h-123v234h553v-234h-147l-422 -667v-306h155v-233h-569v233h158v308l-422 665h-148zM477 1706q0 54 38 91.5t91 37.5q54 0 91.5 -37.5t37.5 -91.5q0 -53 -37.5 -91t-91.5 -38q-52 0 -90.5 38.5t-38.5 90.5zM868 1706 q0 54 37.5 91.5t91.5 37.5q53 0 90 -37.5t37 -91.5q0 -53 -37.5 -91t-89.5 -38q-54 0 -91.5 38t-37.5 91z" />
<glyph unicode="&#x2c6;" horiz-adv-x="1308" d="M315 1010l303 362h93l295 -362h-220l-133 172l-131 -172h-207z" />
<glyph unicode="&#x2dc;" horiz-adv-x="1308" d="M199 1063q4 7 11 19t33 43t57.5 54.5t84.5 42.5t113 19q51 0 99 -18t78.5 -39.5t65.5 -39.5t62 -18q25 0 48 11t39 26t28 30.5t18 26.5l6 11l152 -88q-3 -8 -10 -22t-33 -49t-57 -61.5t-83.5 -48.5t-111.5 -22q-48 0 -92 17.5t-71.5 39t-64.5 39t-73 17.5 q-27 0 -53.5 -10.5t-44.5 -25.5t-33 -30.5t-22 -26.5l-7 -10z" />
<glyph unicode="&#x2000;" horiz-adv-x="1015" />
<glyph unicode="&#x2001;" horiz-adv-x="2030" />
<glyph unicode="&#x2002;" horiz-adv-x="1015" />
<glyph unicode="&#x2003;" horiz-adv-x="2030" />
<glyph unicode="&#x2004;" horiz-adv-x="676" />
<glyph unicode="&#x2005;" horiz-adv-x="507" />
<glyph unicode="&#x2006;" horiz-adv-x="338" />
<glyph unicode="&#x2007;" horiz-adv-x="338" />
<glyph unicode="&#x2008;" horiz-adv-x="253" />
<glyph unicode="&#x2009;" horiz-adv-x="406" />
<glyph unicode="&#x200a;" horiz-adv-x="112" />
<glyph unicode="&#x2010;" horiz-adv-x="1040" d="M266 412v178h508v-178h-508z" />
<glyph unicode="&#x2011;" horiz-adv-x="1040" d="M266 412v178h508v-178h-508z" />
<glyph unicode="&#x2012;" horiz-adv-x="1040" d="M266 412v178h508v-178h-508z" />
<glyph unicode="&#x2013;" horiz-adv-x="1339" d="M260 422v158h819v-158h-819z" />
<glyph unicode="&#x2014;" horiz-adv-x="1847" d="M258 422v158h1331v-158h-1331z" />
<glyph unicode="&#x2018;" horiz-adv-x="784" d="M236 1268q0 201 229 366l59 -69q-51 -39 -94 -100t-43 -91v-4q4 2 14 2q66 0 110 -44t44 -109q0 -64 -44.5 -109t-109.5 -45q-84 0 -124.5 55.5t-40.5 147.5z" />
<glyph unicode="&#x2019;" horiz-adv-x="761" d="M233 1372q0 64 44.5 109t109.5 45q84 0 125 -55.5t41 -147.5q0 -202 -229 -367l-60 70q51 39 94 100t43 91v4q-4 -2 -14 -2q-66 0 -110 44t-44 109z" />
<glyph unicode="&#x201a;" horiz-adv-x="780" d="M231 94q0 64 44.5 109t109.5 45q84 0 125 -55.5t41 -147.5q0 -202 -229 -367l-60 70q51 39 94 100t43 91v4q-4 -2 -14 -2q-66 0 -110 44t-44 109z" />
<glyph unicode="&#x201c;" horiz-adv-x="1169" d="M236 1266q0 201 229 366l59 -69q-51 -39 -94 -100t-43 -91v-4q4 2 14 2q66 0 110 -44t44 -109q0 -64 -44.5 -109t-109.5 -45q-84 0 -124.5 55.5t-40.5 147.5zM621 1266q0 201 229 366l59 -69q-51 -39 -94 -100t-43 -91v-4q4 2 14 2q66 0 110 -44t44 -109 q0 -64 -44.5 -109t-109.5 -45q-84 0 -124.5 55.5t-40.5 147.5z" />
<glyph unicode="&#x201d;" horiz-adv-x="1146" d="M233 1372q0 64 44.5 109t109.5 45q84 0 125 -55.5t41 -147.5q0 -202 -229 -367l-60 70q51 39 94 100t43 91v4q-4 -2 -14 -2q-66 0 -110 44t-44 109zM618 1372q0 64 44.5 109t109.5 45q84 0 125 -55.5t41 -147.5q0 -202 -229 -367l-60 70q51 39 94 100t43 91v4 q-4 -2 -14 -2q-66 0 -110 44t-44 109z" />
<glyph unicode="&#x201e;" horiz-adv-x="1165" d="M231 94q0 64 44.5 109t109.5 45q84 0 125 -55.5t41 -147.5q0 -202 -229 -367l-60 70q51 39 94 100t43 91v4q-4 -2 -14 -2q-66 0 -110 44t-44 109zM616 94q0 64 44.5 109t109.5 45q84 0 125 -55.5t41 -147.5q0 -202 -229 -367l-60 70q51 39 94 100t43 91v4q-4 -2 -14 -2 q-66 0 -110 44t-44 109z" />
<glyph unicode="&#x2022;" horiz-adv-x="1087" d="M279 750q0 114 77.5 192t188.5 78q109 0 186.5 -78.5t77.5 -191.5q0 -112 -77.5 -190.5t-186.5 -78.5q-110 0 -188 78.5t-78 190.5z" />
<glyph unicode="&#x2026;" horiz-adv-x="1859" d="M231 123q0 64 44.5 108.5t109.5 44.5q64 0 109 -45t45 -108q0 -65 -44.5 -109.5t-109.5 -44.5q-66 0 -110 44.5t-44 109.5zM776 123q0 64 44.5 108.5t109.5 44.5q64 0 108.5 -45t44.5 -108q0 -65 -44.5 -109.5t-108.5 -44.5q-66 0 -110 44.5t-44 109.5zM1321 123 q0 64 44.5 108.5t109.5 44.5q64 0 108.5 -45t44.5 -108q0 -65 -44.5 -109.5t-108.5 -44.5q-66 0 -110 44.5t-44 109.5z" />
<glyph unicode="&#x202f;" horiz-adv-x="406" />
<glyph unicode="&#x2039;" horiz-adv-x="868" d="M188 354l215 334h218l-224 -334l224 -336h-218z" />
<glyph unicode="&#x203a;" horiz-adv-x="868" d="M248 18l223 336l-223 334h217l215 -334l-215 -336h-217z" />
<glyph unicode="&#x205f;" horiz-adv-x="507" />
<glyph unicode="&#x20ac;" horiz-adv-x="1781" d="M190 483v179h95q-2 16 -2 59q0 47 2 70h-95v178h132q79 220 284 357.5t463 137.5q90 0 176.5 -13t145.5 -32t105.5 -37.5t68.5 -31.5l22 -13l-88 -217q-8 4 -22.5 11t-58.5 25.5t-88 32t-104.5 25t-113.5 11.5q-178 0 -308 -68t-194 -188h506v-178h-555q-4 -25 -4 -74 q0 -37 2 -55h557v-179h-510q62 -124 189.5 -196t291.5 -72q111 0 218.5 27.5t158.5 54.5l52 27l77 -218q-8 -5 -22.5 -14t-63.5 -31.5t-102 -40t-135 -31.5t-166 -14q-296 0 -506 139t-283 369h-125z" />
<glyph unicode="&#x2122;" horiz-adv-x="1607" d="M231 1317v123h457v-123h-162v-422h-133v422h-162zM772 895l27 549h47l215 -359l211 359h47l24 -549h-120l-6 266l-140 -276h-37l-141 276l-4 -266h-123z" />
<glyph unicode="&#x25fc;" horiz-adv-x="1443" d="M0 0v1444h1444v-1444h-1444z" />
</font>
</defs>
</svg>
